<svg class="main-svg" xmlns="http://www.w3.org/2000/svg" xmlns:xlink="http://www.w3.org/1999/xlink" width="700" height="700" style="" viewBox="0 0 700 700"><rect x="0" y="0" width="700" height="700" style="fill: rgb(255, 255, 255); fill-opacity: 1;"/><defs id="defs-13e9a3"><g class="clips"><clipPath id="clip13e9a3xyplot" class="plotclip"><rect width="448" height="510"/></clipPath><clipPath class="axesclip" id="clip13e9a3x"><rect x="80" y="0" width="448" height="700"/></clipPath><clipPath class="axesclip" id="clip13e9a3y"><rect x="0" y="100" width="700" height="510"/></clipPath><clipPath class="axesclip" id="clip13e9a3xy"><rect x="80" y="100" width="448" height="510"/></clipPath></g><g class="gradients"/><g class="patterns"/></defs><g class="bglayer"><rect class="bg" x="80" y="100" width="448" height="510" style="fill: rgb(229, 236, 246); fill-opacity: 1; stroke-width: 0;"/></g><g class="layer-below"><g class="imagelayer"/><g class="shapelayer"/></g><g class="cartesianlayer"><g class="subplot xy"><g class="layer-subplot"><g class="shapelayer"/><g class="imagelayer"/></g><g class="minor-gridlayer"><g class="x"/><g class="y"/></g><g class="gridlayer"><g class="x"><path class="xgrid crisp" transform="translate(94.27,0)" d="M0,100v510" style="stroke: rgb(255, 255, 255); stroke-opacity: 1; stroke-width: 1px;"/><path class="xgrid crisp" transform="translate(108.53999999999999,0)" d="M0,100v510" style="stroke: rgb(255, 255, 255); stroke-opacity: 1; stroke-width: 1px;"/><path class="xgrid crisp" transform="translate(122.8,0)" d="M0,100v510" style="stroke: rgb(255, 255, 255); stroke-opacity: 1; stroke-width: 1px;"/><path class="xgrid crisp" transform="translate(137.07,0)" d="M0,100v510" style="stroke: rgb(255, 255, 255); stroke-opacity: 1; stroke-width: 1px;"/><path class="xgrid crisp" transform="translate(151.34,0)" d="M0,100v510" style="stroke: rgb(255, 255, 255); stroke-opacity: 1; stroke-width: 1px;"/><path class="xgrid crisp" transform="translate(165.61,0)" d="M0,100v510" style="stroke: rgb(255, 255, 255); stroke-opacity: 1; stroke-width: 1px;"/><path class="xgrid crisp" transform="translate(179.87,0)" d="M0,100v510" style="stroke: rgb(255, 255, 255); stroke-opacity: 1; stroke-width: 1px;"/><path class="xgrid crisp" transform="translate(194.14,0)" d="M0,100v510" style="stroke: rgb(255, 255, 255); stroke-opacity: 1; stroke-width: 1px;"/><path class="xgrid crisp" transform="translate(208.41,0)" d="M0,100v510" style="stroke: rgb(255, 255, 255); stroke-opacity: 1; stroke-width: 1px;"/><path class="xgrid crisp" transform="translate(222.68,0)" d="M0,100v510" style="stroke: rgb(255, 255, 255); stroke-opacity: 1; stroke-width: 1px;"/><path class="xgrid crisp" transform="translate(236.94,0)" d="M0,100v510" style="stroke: rgb(255, 255, 255); stroke-opacity: 1; stroke-width: 1px;"/><path class="xgrid crisp" transform="translate(251.21,0)" d="M0,100v510" style="stroke: rgb(255, 255, 255); stroke-opacity: 1; stroke-width: 1px;"/><path class="xgrid crisp" transform="translate(265.48,0)" d="M0,100v510" style="stroke: rgb(255, 255, 255); stroke-opacity: 1; stroke-width: 1px;"/><path class="xgrid crisp" transform="translate(279.75,0)" d="M0,100v510" style="stroke: rgb(255, 255, 255); stroke-opacity: 1; stroke-width: 1px;"/><path class="xgrid crisp" transform="translate(294.01,0)" d="M0,100v510" style="stroke: rgb(255, 255, 255); stroke-opacity: 1; stroke-width: 1px;"/><path class="xgrid crisp" transform="translate(308.28,0)" d="M0,100v510" style="stroke: rgb(255, 255, 255); stroke-opacity: 1; stroke-width: 1px;"/><path class="xgrid crisp" transform="translate(322.55,0)" d="M0,100v510" style="stroke: rgb(255, 255, 255); stroke-opacity: 1; stroke-width: 1px;"/><path class="xgrid crisp" transform="translate(336.82,0)" d="M0,100v510" style="stroke: rgb(255, 255, 255); stroke-opacity: 1; stroke-width: 1px;"/><path class="xgrid crisp" transform="translate(351.08,0)" d="M0,100v510" style="stroke: rgb(255, 255, 255); stroke-opacity: 1; stroke-width: 1px;"/><path class="xgrid crisp" transform="translate(365.35,0)" d="M0,100v510" style="stroke: rgb(255, 255, 255); stroke-opacity: 1; stroke-width: 1px;"/><path class="xgrid crisp" transform="translate(379.62,0)" d="M0,100v510" style="stroke: rgb(255, 255, 255); stroke-opacity: 1; stroke-width: 1px;"/><path class="xgrid crisp" transform="translate(393.89,0)" d="M0,100v510" style="stroke: rgb(255, 255, 255); stroke-opacity: 1; stroke-width: 1px;"/><path class="xgrid crisp" transform="translate(408.15,0)" d="M0,100v510" style="stroke: rgb(255, 255, 255); stroke-opacity: 1; stroke-width: 1px;"/><path class="xgrid crisp" transform="translate(422.42,0)" d="M0,100v510" style="stroke: rgb(255, 255, 255); stroke-opacity: 1; stroke-width: 1px;"/><path class="xgrid crisp" transform="translate(436.69,0)" d="M0,100v510" style="stroke: rgb(255, 255, 255); stroke-opacity: 1; stroke-width: 1px;"/><path class="xgrid crisp" transform="translate(450.96,0)" d="M0,100v510" style="stroke: rgb(255, 255, 255); stroke-opacity: 1; stroke-width: 1px;"/><path class="xgrid crisp" transform="translate(465.22,0)" d="M0,100v510" style="stroke: rgb(255, 255, 255); stroke-opacity: 1; stroke-width: 1px;"/><path class="xgrid crisp" transform="translate(479.49,0)" d="M0,100v510" style="stroke: rgb(255, 255, 255); stroke-opacity: 1; stroke-width: 1px;"/><path class="xgrid crisp" transform="translate(493.76,0)" d="M0,100v510" style="stroke: rgb(255, 255, 255); stroke-opacity: 1; stroke-width: 1px;"/><path class="xgrid crisp" transform="translate(508.03,0)" d="M0,100v510" style="stroke: rgb(255, 255, 255); stroke-opacity: 1; stroke-width: 1px;"/><path class="xgrid crisp" transform="translate(522.29,0)" d="M0,100v510" style="stroke: rgb(255, 255, 255); stroke-opacity: 1; stroke-width: 1px;"/></g><g class="y"><path class="ygrid crisp" transform="translate(0,541.0899999999999)" d="M80,0h448" style="stroke: rgb(255, 255, 255); stroke-opacity: 1; stroke-width: 1px;"/><path class="ygrid crisp" transform="translate(0,488.15)" d="M80,0h448" style="stroke: rgb(255, 255, 255); stroke-opacity: 1; stroke-width: 1px;"/><path class="ygrid crisp" transform="translate(0,435.21)" d="M80,0h448" style="stroke: rgb(255, 255, 255); stroke-opacity: 1; stroke-width: 1px;"/><path class="ygrid crisp" transform="translate(0,382.26)" d="M80,0h448" style="stroke: rgb(255, 255, 255); stroke-opacity: 1; stroke-width: 1px;"/><path class="ygrid crisp" transform="translate(0,329.32)" d="M80,0h448" style="stroke: rgb(255, 255, 255); stroke-opacity: 1; stroke-width: 1px;"/><path class="ygrid crisp" transform="translate(0,276.38)" d="M80,0h448" style="stroke: rgb(255, 255, 255); stroke-opacity: 1; stroke-width: 1px;"/><path class="ygrid crisp" transform="translate(0,223.44)" d="M80,0h448" style="stroke: rgb(255, 255, 255); stroke-opacity: 1; stroke-width: 1px;"/><path class="ygrid crisp" transform="translate(0,170.5)" d="M80,0h448" style="stroke: rgb(255, 255, 255); stroke-opacity: 1; stroke-width: 1px;"/><path class="ygrid crisp" transform="translate(0,117.56)" d="M80,0h448" style="stroke: rgb(255, 255, 255); stroke-opacity: 1; stroke-width: 1px;"/></g></g><g class="zerolinelayer"><path class="yzl zl crisp" transform="translate(0,594.03)" d="M80,0h448" style="stroke: rgb(255, 255, 255); stroke-opacity: 1; stroke-width: 2px;"/></g><path class="xlines-below"/><path class="ylines-below"/><g class="overlines-below"/><g class="xaxislayer-below"/><g class="yaxislayer-below"/><g class="overaxes-below"/><g class="plot" transform="translate(80,100)" clip-path="url(#clip13e9a3xyplot)"><g class="scatterlayer mlayer"><g class="trace scatter trace210abd" style="stroke-miterlimit: 2; opacity: 1;"><g class="fills"/><g class="errorbars"/><g class="lines"><path class="js-line" d="M0,484.5L2.85,483.97L5.71,481.85L14.27,483.44L17.12,482.38L19.97,482.38L22.83,481.32L25.68,465.97L28.54,440.56L31.39,373.32L34.24,383.38L37.1,370.68L39.95,366.44L42.8,346.32L45.66,339.97L48.51,346.85L51.36,344.21L57.07,316.68L59.92,342.09L62.78,351.09L65.63,345.79L68.48,347.91L71.34,361.15L74.19,361.68L77.04,353.74L79.9,330.97L82.75,324.09L85.61,322.5L88.46,333.62L91.31,326.74L94.17,378.09L99.87,334.68L102.73,318.26L105.58,340.5L108.43,311.38L111.29,292.85L114.14,290.21L116.99,310.32L119.85,254.74L122.7,272.74L125.55,258.44L128.41,196.5L131.26,106.5L134.11,148.32L136.97,278.56L139.82,249.97L142.68,260.56L145.53,301.85L148.38,281.21L151.24,264.26L154.09,290.74L156.94,298.68L159.8,344.74L162.65,343.68L165.5,323.56L168.36,235.15L171.21,237.26L174.06,224.03L176.92,373.85L179.77,312.97L182.62,298.15L185.48,319.32L188.33,318.26L191.18,333.62L194.04,199.68L196.89,224.03L199.75,278.03L202.6,180.62L205.45,216.09L211.16,319.32L214.01,311.38L216.87,292.85L219.72,285.44L222.57,298.68L225.43,274.32L228.28,188.03L231.13,215.56L233.99,166.85L236.84,250.5L239.69,260.03L242.55,247.85L245.4,250.5L248.25,219.79L251.11,225.09L253.96,252.09L256.82,255.79L259.67,222.97L262.52,201.79L265.38,201.79L268.23,203.38L271.08,252.62L273.94,265.85L276.79,269.56L279.64,262.15L282.5,269.03L285.35,230.38L288.2,236.21L291.06,299.21L293.91,252.62L296.76,283.85L299.62,281.74L302.47,282.79L305.32,312.44L308.18,281.21L311.03,299.21L313.89,281.74L316.74,317.21L319.59,273.79L322.45,253.15L325.3,270.09L328.15,260.03L331.01,212.38L333.86,261.62L336.71,222.97L339.57,318.79L342.42,311.91L345.27,302.38L348.13,214.5L350.98,170.56L353.83,272.21L356.69,291.79L359.54,250.5L362.39,232.5L365.25,272.74L368.1,278.03L370.96,272.21L373.81,238.32L376.66,244.68L379.52,184.32L382.37,241.5L385.22,252.09L388.08,290.74L390.93,253.68L393.78,200.74L396.64,197.56L399.49,30.79L402.34,25.5L408.05,168.97L410.9,157.85L413.76,201.26L416.61,83.21L419.46,116.03L422.32,96.97L425.17,148.85L428.03,92.74L433.73,192.79L436.59,231.44L442.29,117.62L445.15,183.79L448,260.56" style="vector-effect: non-scaling-stroke; fill: none; stroke: rgb(170, 13, 254); stroke-opacity: 1; stroke-width: 2px; opacity: 1;"/></g><g class="points"/><g class="text"/></g><g class="trace scatter trace74c3b1" style="stroke-miterlimit: 2; opacity: 1;"><g class="fills"/><g class="errorbars"/><g class="lines"><path class="js-line" d="M0,484.5L57.07,316.68L94.17,378.09L131.26,106.5L176.92,373.85L202.6,180.62L222.57,298.68L265.38,201.79L291.06,299.21L322.45,253.15L339.57,318.79L362.39,232.5L385.22,252.09L399.49,30.79L413.76,201.26L430.88,147.26" style="vector-effect: non-scaling-stroke; fill: none; stroke: rgb(50, 131, 254); stroke-opacity: 1; stroke-width: 2px; opacity: 1;"/></g><g class="points"/><g class="text"/></g></g></g><g class="overplot"/><path class="xlines-above crisp" d="M0,0" style="fill: none;"/><path class="ylines-above crisp" d="M0,0" style="fill: none;"/><g class="overlines-above"/><g class="xaxislayer-above"><g class="xtick"><text text-anchor="start" x="0" y="623" transform="translate(80,0) rotate(90,0,617)" style="font-family: 'Open Sans', verdana, arial, sans-serif; font-size: 12px; fill: rgb(42, 63, 95); fill-opacity: 1; white-space: pre; opacity: 1;">200902</text></g><g class="xtick"><text text-anchor="start" x="0" y="623" transform="translate(94.27,0) rotate(90,0,617)" style="font-family: 'Open Sans', verdana, arial, sans-serif; font-size: 12px; fill: rgb(42, 63, 95); fill-opacity: 1; white-space: pre; opacity: 1;">200907</text></g><g class="xtick"><text text-anchor="start" x="0" y="623" transform="translate(108.53999999999999,0) rotate(90,0,617)" style="font-family: 'Open Sans', verdana, arial, sans-serif; font-size: 12px; fill: rgb(42, 63, 95); fill-opacity: 1; white-space: pre; opacity: 1;">200912</text></g><g class="xtick"><text text-anchor="start" x="0" y="623" transform="translate(122.8,0) rotate(90,0,617)" style="font-family: 'Open Sans', verdana, arial, sans-serif; font-size: 12px; fill: rgb(42, 63, 95); fill-opacity: 1; white-space: pre; opacity: 1;">201005</text></g><g class="xtick"><text text-anchor="start" x="0" y="623" transform="translate(137.07,0) rotate(90,0,617)" style="font-family: 'Open Sans', verdana, arial, sans-serif; font-size: 12px; fill: rgb(42, 63, 95); fill-opacity: 1; white-space: pre; opacity: 1;">201010</text></g><g class="xtick"><text text-anchor="start" x="0" y="623" transform="translate(151.34,0) rotate(90,0,617)" style="font-family: 'Open Sans', verdana, arial, sans-serif; font-size: 12px; fill: rgb(42, 63, 95); fill-opacity: 1; white-space: pre; opacity: 1;">201103</text></g><g class="xtick"><text text-anchor="start" x="0" y="623" transform="translate(165.61,0) rotate(90,0,617)" style="font-family: 'Open Sans', verdana, arial, sans-serif; font-size: 12px; fill: rgb(42, 63, 95); fill-opacity: 1; white-space: pre; opacity: 1;">201108</text></g><g class="xtick"><text text-anchor="start" x="0" y="623" transform="translate(179.87,0) rotate(90,0,617)" style="font-family: 'Open Sans', verdana, arial, sans-serif; font-size: 12px; fill: rgb(42, 63, 95); fill-opacity: 1; white-space: pre; opacity: 1;">201201</text></g><g class="xtick"><text text-anchor="start" x="0" y="623" transform="translate(194.14,0) rotate(90,0,617)" style="font-family: 'Open Sans', verdana, arial, sans-serif; font-size: 12px; fill: rgb(42, 63, 95); fill-opacity: 1; white-space: pre; opacity: 1;">201206</text></g><g class="xtick"><text text-anchor="start" x="0" y="623" transform="translate(208.41,0) rotate(90,0,617)" style="font-family: 'Open Sans', verdana, arial, sans-serif; font-size: 12px; fill: rgb(42, 63, 95); fill-opacity: 1; white-space: pre; opacity: 1;">201211</text></g><g class="xtick"><text text-anchor="start" x="0" y="623" transform="translate(222.68,0) rotate(90,0,617)" style="font-family: 'Open Sans', verdana, arial, sans-serif; font-size: 12px; fill: rgb(42, 63, 95); fill-opacity: 1; white-space: pre; opacity: 1;">201304</text></g><g class="xtick"><text text-anchor="start" x="0" y="623" transform="translate(236.94,0) rotate(90,0,617)" style="font-family: 'Open Sans', verdana, arial, sans-serif; font-size: 12px; fill: rgb(42, 63, 95); fill-opacity: 1; white-space: pre; opacity: 1;">201309</text></g><g class="xtick"><text text-anchor="start" x="0" y="623" transform="translate(251.21,0) rotate(90,0,617)" style="font-family: 'Open Sans', verdana, arial, sans-serif; font-size: 12px; fill: rgb(42, 63, 95); fill-opacity: 1; white-space: pre; opacity: 1;">201402</text></g><g class="xtick"><text text-anchor="start" x="0" y="623" transform="translate(265.48,0) rotate(90,0,617)" style="font-family: 'Open Sans', verdana, arial, sans-serif; font-size: 12px; fill: rgb(42, 63, 95); fill-opacity: 1; white-space: pre; opacity: 1;">201407</text></g><g class="xtick"><text text-anchor="start" x="0" y="623" transform="translate(279.75,0) rotate(90,0,617)" style="font-family: 'Open Sans', verdana, arial, sans-serif; font-size: 12px; fill: rgb(42, 63, 95); fill-opacity: 1; white-space: pre; opacity: 1;">201412</text></g><g class="xtick"><text text-anchor="start" x="0" y="623" transform="translate(294.01,0) rotate(90,0,617)" style="font-family: 'Open Sans', verdana, arial, sans-serif; font-size: 12px; fill: rgb(42, 63, 95); fill-opacity: 1; white-space: pre; opacity: 1;">201505</text></g><g class="xtick"><text text-anchor="start" x="0" y="623" transform="translate(308.28,0) rotate(90,0,617)" style="font-family: 'Open Sans', verdana, arial, sans-serif; font-size: 12px; fill: rgb(42, 63, 95); fill-opacity: 1; white-space: pre; opacity: 1;">201510</text></g><g class="xtick"><text text-anchor="start" x="0" y="623" transform="translate(322.55,0) rotate(90,0,617)" style="font-family: 'Open Sans', verdana, arial, sans-serif; font-size: 12px; fill: rgb(42, 63, 95); fill-opacity: 1; white-space: pre; opacity: 1;">201603</text></g><g class="xtick"><text text-anchor="start" x="0" y="623" transform="translate(336.82,0) rotate(90,0,617)" style="font-family: 'Open Sans', verdana, arial, sans-serif; font-size: 12px; fill: rgb(42, 63, 95); fill-opacity: 1; white-space: pre; opacity: 1;">201608</text></g><g class="xtick"><text text-anchor="start" x="0" y="623" transform="translate(351.08,0) rotate(90,0,617)" style="font-family: 'Open Sans', verdana, arial, sans-serif; font-size: 12px; fill: rgb(42, 63, 95); fill-opacity: 1; white-space: pre; opacity: 1;">201701</text></g><g class="xtick"><text text-anchor="start" x="0" y="623" transform="translate(365.35,0) rotate(90,0,617)" style="font-family: 'Open Sans', verdana, arial, sans-serif; font-size: 12px; fill: rgb(42, 63, 95); fill-opacity: 1; white-space: pre; opacity: 1;">201706</text></g><g class="xtick"><text text-anchor="start" x="0" y="623" transform="translate(379.62,0) rotate(90,0,617)" style="font-family: 'Open Sans', verdana, arial, sans-serif; font-size: 12px; fill: rgb(42, 63, 95); fill-opacity: 1; white-space: pre; opacity: 1;">201711</text></g><g class="xtick"><text text-anchor="start" x="0" y="623" transform="translate(393.89,0) rotate(90,0,617)" style="font-family: 'Open Sans', verdana, arial, sans-serif; font-size: 12px; fill: rgb(42, 63, 95); fill-opacity: 1; white-space: pre; opacity: 1;">201804</text></g><g class="xtick"><text text-anchor="start" x="0" y="623" transform="translate(408.15,0) rotate(90,0,617)" style="font-family: 'Open Sans', verdana, arial, sans-serif; font-size: 12px; fill: rgb(42, 63, 95); fill-opacity: 1; white-space: pre; opacity: 1;">201809</text></g><g class="xtick"><text text-anchor="start" x="0" y="623" transform="translate(422.42,0) rotate(90,0,617)" style="font-family: 'Open Sans', verdana, arial, sans-serif; font-size: 12px; fill: rgb(42, 63, 95); fill-opacity: 1; white-space: pre; opacity: 1;">201902</text></g><g class="xtick"><text text-anchor="start" x="0" y="623" transform="translate(436.69,0) rotate(90,0,617)" style="font-family: 'Open Sans', verdana, arial, sans-serif; font-size: 12px; fill: rgb(42, 63, 95); fill-opacity: 1; white-space: pre; opacity: 1;">201907</text></g><g class="xtick"><text text-anchor="start" x="0" y="623" transform="translate(450.96,0) rotate(90,0,617)" style="font-family: 'Open Sans', verdana, arial, sans-serif; font-size: 12px; fill: rgb(42, 63, 95); fill-opacity: 1; white-space: pre; opacity: 1;">201912</text></g><g class="xtick"><text text-anchor="start" x="0" y="623" transform="translate(465.22,0) rotate(90,0,617)" style="font-family: 'Open Sans', verdana, arial, sans-serif; font-size: 12px; fill: rgb(42, 63, 95); fill-opacity: 1; white-space: pre; opacity: 1;">202005</text></g><g class="xtick"><text text-anchor="start" x="0" y="623" transform="translate(479.49,0) rotate(90,0,617)" style="font-family: 'Open Sans', verdana, arial, sans-serif; font-size: 12px; fill: rgb(42, 63, 95); fill-opacity: 1; white-space: pre; opacity: 1;">202010</text></g><g class="xtick"><text text-anchor="start" x="0" y="623" transform="translate(493.76,0) rotate(90,0,617)" style="font-family: 'Open Sans', verdana, arial, sans-serif; font-size: 12px; fill: rgb(42, 63, 95); fill-opacity: 1; white-space: pre; opacity: 1;">202103</text></g><g class="xtick"><text text-anchor="start" x="0" y="623" transform="translate(508.03,0) rotate(90,0,617)" style="font-family: 'Open Sans', verdana, arial, sans-serif; font-size: 12px; fill: rgb(42, 63, 95); fill-opacity: 1; white-space: pre; opacity: 1;">202108</text></g><g class="xtick"><text text-anchor="start" x="0" y="623" transform="translate(522.29,0) rotate(90,0,617)" style="font-family: 'Open Sans', verdana, arial, sans-serif; font-size: 12px; fill: rgb(42, 63, 95); fill-opacity: 1; white-space: pre; opacity: 1;">202201</text></g></g><g class="yaxislayer-above"><g class="ytick"><text text-anchor="end" x="79" y="4.199999999999999" transform="translate(0,594.03)" style="font-family: 'Open Sans', verdana, arial, sans-serif; font-size: 12px; fill: rgb(42, 63, 95); fill-opacity: 1; white-space: pre; opacity: 1;">0</text></g><g class="ytick"><text text-anchor="end" x="79" y="4.199999999999999" style="font-family: 'Open Sans', verdana, arial, sans-serif; font-size: 12px; fill: rgb(42, 63, 95); fill-opacity: 1; white-space: pre; opacity: 1;" transform="translate(0,541.0899999999999)">100</text></g><g class="ytick"><text text-anchor="end" x="79" y="4.199999999999999" style="font-family: 'Open Sans', verdana, arial, sans-serif; font-size: 12px; fill: rgb(42, 63, 95); fill-opacity: 1; white-space: pre; opacity: 1;" transform="translate(0,488.15)">200</text></g><g class="ytick"><text text-anchor="end" x="79" y="4.199999999999999" style="font-family: 'Open Sans', verdana, arial, sans-serif; font-size: 12px; fill: rgb(42, 63, 95); fill-opacity: 1; white-space: pre; opacity: 1;" transform="translate(0,435.21)">300</text></g><g class="ytick"><text text-anchor="end" x="79" y="4.199999999999999" style="font-family: 'Open Sans', verdana, arial, sans-serif; font-size: 12px; fill: rgb(42, 63, 95); fill-opacity: 1; white-space: pre; opacity: 1;" transform="translate(0,382.26)">400</text></g><g class="ytick"><text text-anchor="end" x="79" y="4.199999999999999" style="font-family: 'Open Sans', verdana, arial, sans-serif; font-size: 12px; fill: rgb(42, 63, 95); fill-opacity: 1; white-space: pre; opacity: 1;" transform="translate(0,329.32)">500</text></g><g class="ytick"><text text-anchor="end" x="79" y="4.199999999999999" style="font-family: 'Open Sans', verdana, arial, sans-serif; font-size: 12px; fill: rgb(42, 63, 95); fill-opacity: 1; white-space: pre; opacity: 1;" transform="translate(0,276.38)">600</text></g><g class="ytick"><text text-anchor="end" x="79" y="4.199999999999999" style="font-family: 'Open Sans', verdana, arial, sans-serif; font-size: 12px; fill: rgb(42, 63, 95); fill-opacity: 1; white-space: pre; opacity: 1;" transform="translate(0,223.44)">700</text></g><g class="ytick"><text text-anchor="end" x="79" y="4.199999999999999" style="font-family: 'Open Sans', verdana, arial, sans-serif; font-size: 12px; fill: rgb(42, 63, 95); fill-opacity: 1; white-space: pre; opacity: 1;" transform="translate(0,170.5)">800</text></g><g class="ytick"><text text-anchor="end" x="79" y="4.199999999999999" style="font-family: 'Open Sans', verdana, arial, sans-serif; font-size: 12px; fill: rgb(42, 63, 95); fill-opacity: 1; white-space: pre; opacity: 1;" transform="translate(0,117.56)">900</text></g></g><g class="overaxes-above"/></g></g><g class="polarlayer"/><g class="smithlayer"/><g class="ternarylayer"/><g class="geolayer"/><g class="funnelarealayer"/><g class="pielayer"/><g class="iciclelayer"/><g class="treemaplayer"/><g class="sunburstlayer"/><g class="glimages"/><defs id="topdefs-13e9a3"><g class="clips"/><clipPath id="legend13e9a3"><rect width="151" height="48" x="0" y="0"/></clipPath></defs><g class="layer-above"><g class="imagelayer"/><g class="shapelayer"/></g><g class="infolayer"><g class="legend" pointer-events="all" transform="translate(536.96,100)"><rect class="bg" shape-rendering="crispEdges" style="stroke: rgb(68, 68, 68); stroke-opacity: 1; fill: rgb(255, 255, 255); fill-opacity: 1; stroke-width: 0px;" width="151" height="48" x="0" y="0"/><g class="scrollbox" transform="" clip-path="url(#legend13e9a3)"><g class="groups" transform=""><g class="traces" transform="translate(0,14.5)" style="opacity: 1;"><text class="legendtext" text-anchor="start" x="40" y="4.680000000000001" style="font-family: 'Open Sans', verdana, arial, sans-serif; font-size: 12px; fill: rgb(42, 63, 95); fill-opacity: 1; white-space: pre;">Original curve</text><g class="layers" style="opacity: 1;"><g class="legendfill"/><g class="legendlines"><path class="js-line" d="M5,0h30" style="fill: none; stroke: rgb(170, 13, 254); stroke-opacity: 1; stroke-width: 2px;"/></g><g class="legendsymbols"><g class="legendpoints"/></g></g><rect class="legendtoggle" x="0" y="-9.5" width="145.9375" height="19" style="fill: rgb(0, 0, 0); fill-opacity: 0;"/></g></g><g class="groups" transform=""><g class="traces" transform="translate(0,33.5)" style="opacity: 1;"><text class="legendtext" text-anchor="start" x="40" y="4.680000000000001" style="font-family: 'Open Sans', verdana, arial, sans-serif; font-size: 12px; fill: rgb(42, 63, 95); fill-opacity: 1; white-space: pre;">Segmented curve</text><g class="layers" style="opacity: 1;"><g class="legendfill"/><g class="legendlines"><path class="js-line" d="M5,0h30" style="fill: none; stroke: rgb(50, 131, 254); stroke-opacity: 1; stroke-width: 2px;"/></g><g class="legendsymbols"><g class="legendpoints"/></g></g><rect class="legendtoggle" x="0" y="-9.5" width="145.9375" height="19" style="fill: rgb(0, 0, 0); fill-opacity: 0;"/></g></g></g><rect class="scrollbar" rx="20" ry="3" width="0" height="0" style="fill: rgb(128, 139, 164); fill-opacity: 1;" x="0" y="0"/></g><g class="g-gtitle"><text class="gtitle" x="35" y="50" text-anchor="start" dy="0em" style="font-family: 'Open Sans', verdana, arial, sans-serif; font-size: 17px; fill: rgb(42, 63, 95); opacity: 1; font-weight: normal; white-space: pre;">Piecewise Linear Time Division Diagram</text></g><g class="g-xtitle"><text class="xtitle" x="304" y="687.95625" text-anchor="middle" style="font-family: 'Open Sans', verdana, arial, sans-serif; font-size: 14px; fill: rgb(42, 63, 95); opacity: 1; font-weight: normal; white-space: pre;">Time</text></g><g class="g-ytitle"><text class="ytitle" transform="rotate(-90,31.309375000000003,355)" x="31.309375000000003" y="355" text-anchor="middle" style="font-family: 'Open Sans', verdana, arial, sans-serif; font-size: 14px; fill: rgb(42, 63, 95); opacity: 1; font-weight: normal; white-space: pre;">Number Of Keywords</text></g></g></svg>